<?xml version="1.0" standalone="no"?>
<!DOCTYPE svg PUBLIC "-//W3C//DTD SVG 20010904//EN"
 "http://www.w3.org/TR/2001/REC-SVG-20010904/DTD/svg10.dtd">
<svg version="1.0" xmlns="http://www.w3.org/2000/svg"
 width="332.000000pt" height="345.000000pt" viewBox="0 0 332.000000 345.000000"
 preserveAspectRatio="xMidYMid meet">
<metadata>
Created by potrace 1.16, written by Peter Selinger 2001-2019
</metadata>
<g transform="translate(0.000000,345.000000) scale(0.100000,-0.100000)"
fill="#000000" stroke="none">
<path d="M1527 3314 c-3 -3 -30 -9 -59 -13 l-53 -6 -3 -42 c-5 -63 21 -109 64
-117 36 -7 49 -36 16 -36 -11 0 -27 -9 -36 -19 -17 -19 -17 -21 8 -42 14 -12
26 -30 26 -40 0 -28 38 -34 69 -11 22 17 26 25 23 63 -2 24 -10 51 -18 60 -19
21 -18 29 9 57 18 19 22 34 20 79 -1 33 -7 60 -15 64 -15 10 -42 12 -51 3z
m41 -72 c3 -34 -13 -66 -29 -56 -5 3 -8 11 -7 17 1 7 -3 22 -10 35 -16 28 -7
44 21 40 17 -2 23 -11 25 -36z m-78 9 c0 -6 -4 -13 -10 -16 -15 -10 -12 -35 5
-35 8 0 15 -6 15 -14 0 -15 -27 -29 -40 -21 -16 10 -22 65 -10 80 14 17 40 20
40 6z m40 -186 c0 -9 -7 -18 -16 -22 -18 -7 -39 11 -30 26 11 17 46 13 46 -4z"/>
<path d="M1321 3259 c-52 -10 -66 -21 -57 -45 5 -12 14 -15 36 -10 40 7 40
-13 0 -36 -36 -21 -38 -48 -6 -79 19 -18 22 -28 15 -41 -13 -24 6 -58 31 -58
20 0 60 44 60 66 0 19 -17 17 -24 -3 -5 -12 -9 -14 -18 -5 -9 9 -7 19 10 41
18 25 21 41 19 102 -2 40 -7 74 -13 75 -5 1 -29 -2 -53 -7z m39 -117 c0 -12
-23 -32 -37 -32 -17 0 -17 27 0 33 19 8 37 8 37 -1z"/>
<path d="M1845 3256 c-17 -12 -17 -16 -5 -31 10 -12 23 -15 52 -10 41 7 44 4
28 -25 -7 -14 -7 -25 1 -38 15 -25 6 -50 -23 -62 -21 -8 -20 -9 9 -9 45 -1 70
35 54 80 -13 38 -8 49 24 49 30 0 39 24 16 44 -23 21 -129 22 -156 2z"/>
<path d="M910 3152 c0 -20 -9 -35 -30 -50 -33 -25 -39 -47 -14 -56 10 -4 14
-12 10 -22 -15 -39 60 -132 86 -106 9 9 7 16 -5 30 -21 23 -21 36 -3 51 12 10
18 6 32 -24 17 -35 16 -71 -3 -174 -9 -52 19 -34 35 22 15 54 34 60 54 17 7
-16 18 -32 25 -35 18 -6 16 27 -2 51 -22 29 -18 34 28 34 44 0 77 21 77 49 0
10 -9 11 -37 5 -41 -8 -91 -10 -98 -2 -3 2 4 22 15 43 23 45 25 64 9 99 -16
34 -33 38 -74 19 -45 -22 -55 -10 -22 25 18 19 23 32 17 42 -7 11 -13 12 -35
2 -19 -9 -32 -9 -46 -2 -17 9 -19 7 -19 -18z m160 -98 c7 -17 7 -32 0 -45 -13
-22 -30 -25 -30 -4 0 8 -9 19 -20 25 -11 6 -18 16 -14 21 5 8 35 24 52 28 1 1
7 -11 12 -25z m-120 2 c0 -17 -27 -29 -35 -16 -4 6 -3 15 0 20 9 15 35 12 35
-4z"/>
<path d="M2440 3112 c-9 -4 -32 -19 -51 -35 -29 -22 -42 -26 -69 -21 -40 8
-57 -12 -33 -38 21 -23 17 -27 -63 -49 -66 -18 -93 -33 -82 -44 11 -11 143 17
183 39 24 12 58 21 85 21 54 0 66 15 26 33 l-28 14 38 22 c55 31 49 83 -6 58z"/>
<path d="M1783 3080 c-26 -11 -30 -32 -9 -49 20 -17 213 -33 238 -20 37 20 13
34 -69 40 -83 6 -107 14 -98 30 8 11 -33 11 -62 -1z"/>
<path d="M530 2918 c1 -22 25 -107 33 -114 12 -12 8 -34 -8 -40 -8 -4 -27 8
-46 30 -17 20 -35 34 -39 31 -10 -6 -8 -101 3 -111 4 -4 16 1 27 11 20 18 24
15 21 -17 -2 -12 5 -18 17 -18 25 0 34 -23 22 -55 -12 -32 4 -41 36 -20 21 13
24 22 19 45 -8 35 7 46 29 21 20 -22 13 -42 -28 -80 -29 -27 -35 -71 -11 -71
9 0 30 22 47 50 31 50 57 61 36 15 -15 -33 -5 -40 26 -19 25 15 28 15 45 0 17
-16 41 -22 41 -10 0 3 -10 19 -21 36 -21 29 -21 31 -5 59 23 39 11 57 -20 28
-33 -31 -30 -7 6 46 17 24 30 48 30 54 0 21 -28 11 -45 -16 l-18 -27 -14 36
c-21 53 -73 57 -73 7 0 -20 -18 -35 -28 -24 -4 3 1 20 11 37 23 40 11 55 -20
26 l-26 -23 7 28 c3 15 8 37 11 50 5 17 0 25 -21 35 -16 6 -32 12 -36 12 -4 0
-8 -6 -8 -12z"/>
<path d="M2335 2908 c-15 -39 52 -128 96 -128 16 0 29 3 29 7 0 4 -16 24 -36
44 -20 20 -41 47 -48 60 -14 27 -34 36 -41 17z"/>
<path d="M2720 2879 c-19 -12 -38 -27 -43 -35 -5 -8 -19 -11 -40 -8 -39 7 -73
-15 -64 -40 5 -14 14 -16 37 -11 28 6 37 0 110 -71 44 -43 80 -86 80 -96 0
-22 13 -23 31 -2 11 13 10 17 -4 25 -23 13 -21 39 3 39 23 0 70 48 70 73 0 12
-10 20 -31 24 -30 6 -31 7 -14 20 15 10 16 16 7 25 -15 15 -62 -5 -62 -27 0
-8 -12 -18 -27 -21 -16 -4 -33 -11 -40 -16 -7 -5 -14 -5 -17 1 -7 10 32 37 47
33 4 -1 7 5 7 13 0 9 11 20 25 25 39 15 31 32 -12 25 -35 -6 -36 -5 -19 9 10
8 15 19 11 25 -9 15 -15 14 -55 -10z m148 -138 c3 -9 -2 -11 -17 -6 -14 4 -31
1 -46 -9 -36 -23 -42 -19 -15 9 26 28 70 31 78 6z"/>
<path d="M1530 2873 c-224 -35 -371 -91 -525 -201 -175 -124 -291 -263 -384
-464 -124 -264 -138 -565 -40 -855 114 -339 392 -609 739 -718 142 -44 292
-60 440 -47 507 46 897 389 1022 897 31 126 31 359 0 492 -109 465 -467 807
-930 888 -79 13 -259 18 -322 8z m235 -423 c29 -61 55 -80 90 -66 9 3 27 32
41 63 35 78 39 82 77 74 l32 -7 5 -84 5 -84 32 -9 c29 -9 36 -6 87 38 57 48
79 52 106 20 10 -12 8 -27 -10 -72 -13 -32 -28 -64 -33 -71 -7 -9 -3 -20 13
-37 28 -30 37 -30 118 -6 l62 19 15 -21 c24 -34 18 -50 -40 -104 -51 -49 -54
-53 -44 -81 11 -31 14 -33 122 -48 39 -5 48 -11 53 -30 10 -39 -1 -51 -70 -74
-37 -12 -71 -30 -76 -40 -21 -38 -11 -55 55 -95 66 -41 75 -57 54 -96 -9 -19
-17 -20 -88 -14 -76 7 -78 7 -95 -20 -17 -26 -17 -27 23 -89 46 -71 49 -86 21
-111 -18 -17 -22 -16 -93 20 -71 37 -74 38 -98 21 l-26 -16 14 -82 c8 -44 10
-84 6 -89 -4 -4 -19 -10 -33 -14 -22 -5 -32 3 -78 62 l-53 67 2 78 2 78 51 29
c76 43 118 95 154 194 61 163 -22 360 -182 436 -105 49 -236 45 -334 -10 l-53
-30 -47 42 c-26 23 -57 46 -69 52 -14 6 -32 34 -48 76 l-27 65 22 18 c31 25
39 23 100 -27 61 -50 59 -49 95 -33 21 9 25 18 26 52 1 83 12 120 39 126 33 9
41 2 75 -70z m-334 -262 c73 -33 128 -84 165 -150 l29 -53 3 -367 3 -368 -25
-25 c-33 -33 -101 -35 -140 -4 l-26 20 0 359 0 359 -24 24 c-80 80 -264 70
-317 -17 -18 -29 -19 -57 -19 -436 l0 -405 -90 90 -90 90 0 327 c0 391 2 401
101 492 80 75 147 97 279 93 77 -2 106 -8 151 -29z m-71 -654 c6 -400 1 -379
93 -410 89 -29 217 0 247 56 6 11 10 155 10 352 0 183 4 339 9 346 5 9 31 12
92 10 l84 -3 3 -339 c3 -395 0 -413 -74 -495 -172 -192 -510 -155 -626 69 -23
44 -23 50 -26 408 l-3 363 93 -3 93 -3 5 -351z"/>
<path d="M2655 2719 c-4 -5 1 -19 11 -30 13 -15 15 -22 6 -31 -9 -9 -20 -4
-45 20 -18 18 -36 32 -40 32 -18 0 -4 -33 26 -60 31 -29 31 -31 13 -45 -23
-17 -62 -20 -71 -5 -10 17 -25 11 -25 -9 0 -26 43 -33 93 -15 22 8 51 14 64
14 22 0 24 2 12 16 -12 15 -11 19 9 32 29 19 28 33 -6 65 -31 30 -38 32 -47
16z"/>
<path d="M317 2458 c-14 -24 -23 -46 -20 -50 6 -11 33 -10 33 1 0 5 7 17 16
25 14 14 18 14 44 -6 22 -16 28 -27 24 -44 -7 -29 12 -40 26 -14 13 25 18 25
49 1 24 -18 24 -20 8 -44 -13 -21 -14 -27 -3 -36 11 -9 19 -2 39 31 30 50 34
45 -78 110 -38 23 -80 47 -91 55 -20 13 -23 11 -47 -29z"/>
<path d="M2957 2431 c-15 -10 -64 -26 -107 -35 -54 -12 -80 -22 -80 -32 0 -16
37 -19 74 -4 34 13 33 3 -5 -36 -22 -22 -30 -38 -25 -50 6 -15 18 -6 74 48 37
36 82 73 100 82 34 18 44 46 15 45 -10 0 -31 -9 -46 -18z"/>
<path d="M274 2378 c-4 -6 3 -19 15 -29 32 -27 20 -60 -18 -53 -26 6 -51 -9
-38 -22 12 -12 228 -66 242 -61 36 14 13 44 -85 110 -55 37 -102 67 -104 67
-3 0 -8 -5 -12 -12z m112 -89 c45 -27 43 -40 -3 -27 -44 12 -58 22 -49 37 10
15 14 14 52 -10z"/>
<path d="M3007 2351 c-51 -24 -60 -35 -52 -60 7 -24 35 -29 35 -6 0 22 47 42
62 27 18 -18 -3 -34 -87 -71 -60 -27 -79 -31 -88 -22 -9 10 -7 17 12 32 14 11
21 25 17 35 -5 14 -9 13 -36 -3 -36 -21 -41 -62 -10 -93 26 -26 30 -25 129 18
97 43 118 64 96 102 -8 14 -18 33 -21 43 -8 20 -8 20 -57 -2z"/>
<path d="M224 2232 c-26 -17 -35 -51 -22 -79 21 -43 56 -48 122 -18 59 27 96
26 96 -2 0 -8 -9 -17 -21 -20 -17 -5 -20 -11 -15 -35 8 -41 -9 -44 -115 -18
-67 17 -93 20 -102 11 -18 -18 1 -27 106 -50 90 -21 97 -24 97 -47 0 -14 6
-24 14 -24 10 0 19 20 26 58 7 31 18 69 26 84 21 39 17 64 -12 87 -34 26 -37
26 -103 -4 -57 -27 -94 -25 -89 3 2 10 13 21 26 27 12 5 22 15 22 22 0 14 -38
17 -56 5z"/>
<path d="M2986 2180 c-43 -15 -82 -34 -87 -41 -23 -37 3 -99 42 -99 39 0 170
54 189 77 22 28 19 59 -8 81 -23 17 -47 14 -136 -18z m124 -28 c0 -13 -21 -25
-80 -46 -44 -15 -87 -26 -95 -22 -34 12 -13 34 58 59 88 31 117 33 117 9z"/>
<path d="M3134 2077 c-3 -9 -4 -23 -1 -30 10 -25 -8 -34 -106 -52 -54 -10
-100 -22 -104 -28 -15 -24 19 -26 113 -7 146 30 137 25 130 74 -8 48 -22 67
-32 43z"/>
<path d="M3030 1929 c-80 -10 -104 -32 -89 -82 5 -17 9 -32 9 -33 0 -10 60
-11 128 -2 90 12 122 30 122 68 0 11 -9 29 -20 40 -22 22 -43 23 -150 9z m135
-48 c0 -19 -43 -30 -125 -33 -59 -3 -65 -1 -65 17 0 16 9 21 40 26 70 11 150
6 150 -10z"/>
<path d="M137 1822 c-35 -38 -5 -102 48 -102 37 0 35 38 -2 42 -29 3 -44 32
-21 40 7 2 51 1 98 -2 77 -4 85 -7 85 -25 0 -13 -8 -21 -22 -23 -12 -2 -24
-10 -27 -18 -4 -10 3 -14 28 -14 42 0 58 19 54 62 -4 45 -34 58 -139 58 -71 0
-89 -3 -102 -18z"/>
<path d="M2950 1765 c0 -12 14 -15 70 -15 39 0 70 -4 70 -8 0 -5 -26 -16 -57
-25 -72 -22 -87 -31 -81 -48 8 -21 248 -14 248 7 0 11 -16 14 -72 14 -81 0
-78 7 13 36 42 14 59 24 59 36 0 16 -13 18 -125 18 -104 0 -125 -2 -125 -15z"/>
<path d="M193 1693 c-65 -3 -73 -6 -73 -23 0 -18 7 -20 60 -20 53 0 60 -2 60
-20 0 -17 -7 -20 -50 -20 -36 0 -52 -4 -57 -15 -3 -9 -3 -18 0 -22 3 -3 60 -2
126 2 112 7 121 9 121 27 0 18 -6 19 -52 16 -47 -3 -53 -1 -53 17 0 17 8 21
50 25 37 4 51 9 53 23 4 18 1 18 -185 10z"/>
<path d="M2950 1621 c0 -17 8 -20 48 -23 39 -3 47 -6 47 -23 0 -18 -6 -20 -52
-17 -46 2 -53 0 -53 -16 0 -16 13 -20 103 -31 56 -7 112 -15 125 -18 17 -4 22
-1 22 15 0 22 -24 32 -77 32 -26 0 -33 4 -33 19 0 28 13 33 57 23 21 -5 44 -7
51 -5 20 7 14 32 -10 38 -19 4 -205 25 -223 25 -3 0 -5 -9 -5 -19z"/>
<path d="M290 1543 c-153 -23 -150 -22 -150 -44 0 -15 5 -18 23 -15 12 3 56
10 97 16 118 17 130 21 130 35 0 21 -9 22 -100 8z"/>
<path d="M320 1484 c-127 -33 -170 -48 -170 -61 0 -17 26 -17 84 3 26 9 49 14
52 11 3 -3 -22 -24 -55 -46 -34 -23 -61 -48 -61 -56 0 -19 1 -19 117 9 112 28
133 35 133 46 0 19 -22 20 -75 5 -82 -24 -86 -14 -12 33 48 29 65 45 61 57 -7
17 -3 17 -74 -1z"/>
<path d="M2936 1484 c-19 -18 -21 -77 -3 -92 6 -5 53 -19 102 -31 88 -20 91
-20 115 -2 36 26 38 64 4 90 -31 25 -57 24 -62 -2 -2 -12 3 -17 18 -17 23 0
38 -26 24 -40 -9 -9 -118 11 -161 30 -34 14 -29 40 7 40 32 0 42 23 14 34 -25
10 -42 7 -58 -10z"/>
<path d="M2903 1352 c-3 -9 -21 -54 -39 -100 -19 -45 -34 -87 -34 -92 0 -16
28 -12 38 6 7 13 22 9 105 -30 78 -36 98 -42 107 -31 13 16 15 14 -102 72 -48
23 -88 46 -88 51 0 29 26 28 116 -4 52 -19 98 -34 102 -34 9 0 32 59 32 83 0
26 -29 20 -36 -8 -7 -28 -20 -31 -58 -13 -20 9 -24 16 -20 35 7 28 -20 33 -35
6 -8 -14 -14 -16 -38 -7 -27 10 -32 23 -19 55 5 10 1 19 -9 23 -10 3 -18 -1
-22 -12z"/>
<path d="M345 1324 c-33 -7 -84 -19 -113 -25 -56 -13 -64 -32 -16 -37 46 -6
55 -44 13 -55 -22 -6 -25 -25 -5 -33 11 -4 181 85 215 112 2 2 1 15 -3 29 -7
28 -8 28 -91 9z m25 -34 c0 -16 -78 -52 -86 -39 -9 15 5 26 46 37 19 6 36 11
38 11 1 1 2 -3 2 -9z"/>
<path d="M413 1084 c-45 -29 -90 -65 -99 -79 -16 -25 -16 -27 3 -53 11 -15 29
-28 41 -30 26 -4 202 104 202 124 0 24 -22 16 -108 -37 -46 -28 -90 -48 -98
-45 -31 12 -13 32 81 89 87 53 86 52 79 70 -3 9 -9 17 -13 16 -3 0 -43 -25
-88 -55z"/>
<path d="M2774 1060 c-15 -22 -25 -42 -23 -43 2 -1 50 -33 106 -70 l102 -66
19 27 c25 36 33 59 26 76 -8 21 -157 116 -182 116 -14 0 -31 -14 -48 -40z
m126 -42 c67 -45 75 -55 61 -76 -6 -11 -26 -2 -85 38 -63 42 -75 54 -65 66 16
20 19 19 89 -28z"/>
<path d="M470 943 c-52 -41 -95 -80 -95 -86 0 -22 23 -16 68 19 26 20 49 35
52 33 2 -3 -11 -27 -30 -54 -36 -52 -44 -85 -22 -85 20 0 197 141 197 157 0
22 -21 15 -77 -27 -29 -23 -53 -38 -53 -35 0 3 18 33 41 66 36 53 45 90 22 88
-4 0 -51 -34 -103 -76z"/>
<path d="M2726 991 c-3 -5 19 -30 50 -56 30 -26 53 -49 51 -51 -2 -2 -34 8
-70 23 -53 21 -70 24 -80 14 -9 -9 -5 -18 23 -42 19 -17 46 -40 60 -52 70 -62
101 -80 113 -68 12 13 10 16 -62 72 -37 29 -17 34 38 10 57 -24 77 -26 84 -8
5 13 -173 167 -192 167 -6 0 -12 -4 -15 -9z"/>
<path d="M567 814 c-54 -53 -86 -92 -83 -100 3 -8 9 -14 13 -14 4 1 46 37 92
80 47 44 86 78 88 76 2 -2 -26 -50 -63 -106 -59 -90 -65 -103 -52 -117 13 -13
27 -5 117 63 55 42 101 80 101 84 0 5 -7 10 -15 13 -8 4 -39 -15 -75 -45 -34
-28 -63 -49 -65 -46 -2 2 16 32 40 68 25 35 45 67 45 72 0 10 -41 58 -49 58
-3 0 -46 -39 -94 -86z"/>
<path d="M2622 858 c-20 -20 -14 -33 41 -109 82 -113 94 -126 107 -113 9 9 8
18 -4 37 -14 21 -15 26 -2 36 12 10 20 9 40 -4 24 -16 26 -16 32 -1 7 19 5 20
-106 99 -98 69 -95 68 -108 55z m93 -85 c26 -21 31 -30 23 -40 -9 -11 -17 -7
-39 19 -46 54 -38 64 16 21z"/>
<path d="M2502 740 c-21 -20 -30 -35 -25 -43 19 -30 147 -187 152 -187 3 1 22
14 41 30 26 23 31 33 23 41 -9 9 -18 8 -36 -4 -23 -15 -26 -15 -46 7 -25 27
-26 34 -5 58 16 16 16 18 0 24 -9 3 -22 1 -30 -5 -10 -8 -18 -5 -36 14 l-23
25 22 24 c13 14 20 29 16 35 -9 16 -17 13 -53 -19z"/>
<path d="M758 728 c-12 -18 -30 -42 -40 -53 -9 -11 -33 -40 -52 -65 l-36 -45
35 -34 c29 -30 36 -33 50 -21 14 12 14 15 -5 35 -25 27 -25 33 1 61 17 19 25
21 40 11 25 -16 35 -2 19 28 -12 23 -12 28 8 47 19 20 23 20 39 6 10 -8 24
-17 31 -19 8 -3 -9 -38 -49 -101 -55 -88 -65 -118 -39 -118 5 0 20 18 32 40
13 22 29 40 36 40 16 0 15 -6 -4 -57 -16 -41 -13 -80 5 -69 5 3 16 26 24 50 8
24 34 63 56 85 50 50 53 80 10 113 -17 13 -50 40 -73 61 -24 20 -48 37 -54 37
-6 0 -21 -15 -34 -32z m148 -103 c7 -17 -21 -65 -37 -65 -18 0 -21 28 -4 54
20 29 33 33 41 11z"/>
<path d="M2395 655 c-14 -13 -25 -28 -25 -33 0 -15 104 -175 121 -185 24 -15
68 0 80 27 9 18 7 31 -6 55 -17 34 -42 37 -37 5 14 -84 -8 -81 -68 12 -27 42
-50 83 -50 90 0 19 36 18 44 -1 7 -19 25 -19 33 0 7 20 -24 55 -49 55 -10 0
-30 -11 -43 -25z"/>
<path d="M2325 610 c-4 -6 7 -36 24 -67 17 -31 31 -61 31 -67 0 -6 -26 15 -57
46 -40 39 -62 55 -71 49 -11 -6 -1 -33 42 -119 30 -61 60 -113 66 -117 24 -15
19 28 -10 79 -17 31 -27 56 -22 56 4 0 28 -20 52 -45 44 -45 63 -54 75 -35 7
11 -105 230 -117 230 -4 0 -10 -5 -13 -10z"/>
<path d="M965 586 c-27 -27 -30 -48 -14 -115 12 -52 4 -81 -21 -81 -13 0 -20
8 -22 28 -3 31 -31 37 -36 8 -9 -44 36 -84 78 -71 37 12 51 55 38 123 -6 33
-8 67 -5 76 9 24 35 19 39 -6 4 -28 32 -30 36 -3 3 25 -16 51 -45 60 -17 4
-29 -1 -48 -19z"/>
<path d="M1092 546 c-19 -24 -101 -219 -96 -228 14 -23 33 1 73 92 24 55 46
100 50 100 3 0 13 -5 21 -10 13 -8 10 -22 -19 -102 -39 -109 -41 -121 -21
-125 11 -3 24 24 49 94 39 112 41 116 65 107 16 -6 17 -18 13 -103 -2 -53 -8
-106 -12 -118 -6 -19 -4 -23 13 -23 15 0 21 9 27 37 7 38 34 99 65 143 29 42
32 60 10 60 -12 0 -25 -14 -36 -40 -10 -22 -21 -40 -25 -40 -5 0 -9 23 -11 51
l-3 52 -77 32 c-56 24 -80 30 -86 21z"/>
<path d="M2168 533 c-21 -8 -38 -19 -38 -23 0 -16 72 -209 84 -226 11 -15 15
-15 54 5 29 15 40 26 35 37 -3 8 -12 13 -19 10 -8 -3 -20 -9 -28 -12 -10 -4
-20 5 -30 25 -21 40 -20 48 5 54 27 7 19 32 -10 32 -14 0 -28 10 -36 25 -15
29 -12 38 21 50 15 6 22 15 18 25 -7 18 -9 18 -56 -2z"/>
<path d="M2070 486 c0 -7 4 -26 9 -42 6 -16 21 -68 36 -116 20 -68 29 -86 41
-81 18 7 14 28 -28 161 -19 60 -34 92 -43 92 -8 0 -15 -6 -15 -14z"/>
<path d="M1966 465 c-24 -18 -24 -48 -2 -146 20 -90 33 -111 69 -111 39 -1 57
19 57 62 0 41 -6 51 -26 43 -9 -3 -11 -14 -7 -34 4 -21 1 -30 -11 -35 -9 -4
-19 -4 -23 -1 -7 8 -43 156 -43 180 0 24 37 22 45 -3 3 -11 13 -20 21 -20 21
0 17 37 -6 60 -23 23 -48 25 -74 5z"/>
<path d="M1837 432 c-32 -35 -21 -73 33 -127 28 -27 50 -55 50 -62 0 -22 -32
-28 -46 -9 -14 20 -34 13 -34 -11 0 -20 29 -42 57 -43 32 0 53 26 53 67 0 29
-9 43 -50 83 -53 51 -55 56 -40 80 7 12 12 11 30 -5 27 -25 46 -8 24 23 -18
27 -55 29 -77 4z"/>
<path d="M1477 425 c-16 -16 -27 -78 -29 -169 -1 -47 2 -61 17 -72 26 -20 59
-17 79 5 23 26 36 212 16 236 -16 19 -64 19 -83 0z m56 -90 c-3 -104 -11 -137
-31 -133 -15 3 -17 15 -14 83 3 105 8 127 30 123 14 -3 17 -15 15 -73z"/>
<path d="M1600 300 c0 -109 2 -130 15 -130 11 0 15 12 16 40 1 22 3 45 4 50 1
6 3 15 4 20 0 6 9 10 18 8 10 -2 19 4 21 15 2 12 -3 17 -17 17 -18 0 -21 6
-21 40 0 38 2 40 30 40 20 0 30 5 30 15 0 11 -12 15 -50 15 l-50 0 0 -130z"/>
</g>
</svg>
