<?xml version="1.0" standalone="no"?>
<!DOCTYPE svg PUBLIC "-//W3C//DTD SVG 20010904//EN"
 "http://www.w3.org/TR/2001/REC-SVG-20010904/DTD/svg10.dtd">
<svg version="1.0" xmlns="http://www.w3.org/2000/svg"
 width="1200.000000pt" height="800.000000pt" viewBox="0 0 1200.000000 800.000000"
 preserveAspectRatio="xMidYMid meet">
<metadata>
Created by potrace 1.16, written by Peter Selinger 2001-2019
</metadata>
<g transform="translate(0.000000,800.000000) scale(0.100000,-0.100000)"
fill="#000000" stroke="none">
<path d="M0 4000 l0 -4000 6000 0 6000 0 0 4000 0 4000 -6000 0 -6000 0 0
-4000z m5890 2290 c17 -11 30 -122 18 -166 -4 -16 -21 -43 -37 -58 -31 -30
-32 -61 -1 -71 23 -7 29 -32 18 -65 -6 -16 -5 -32 3 -48 17 -30 5 -49 -45 -75
-50 -26 -86 -12 -86 33 0 23 -7 33 -29 45 -17 8 -32 19 -36 25 -12 19 17 52
63 72 42 19 44 22 22 26 -14 2 -30 9 -36 17 -5 7 -18 13 -29 12 -42 -4 -91
120 -76 193 7 35 7 35 75 43 37 4 75 11 85 17 21 12 72 12 91 0z m595 -62 c26
-12 42 -48 30 -67 -3 -6 -16 -11 -29 -11 -12 0 -30 -6 -39 -12 -14 -11 -15
-19 -7 -48 16 -56 12 -80 -20 -112 -29 -29 -33 -30 -90 -23 -38 4 -60 3 -60
-3 0 -17 32 -24 130 -29 130 -6 142 -9 138 -36 -6 -40 -42 -48 -172 -36 -207
19 -257 43 -204 96 25 25 34 27 112 28 96 2 121 14 112 54 -17 82 -17 87 -2
100 29 24 17 30 -47 24 -51 -4 -65 -2 -76 11 -12 14 -12 21 -1 41 7 13 20 26
29 28 35 10 172 6 196 -5z m-868 -24 c3 -8 0 -26 -8 -40 -10 -20 -10 -31 -1
-58 19 -53 14 -89 -18 -132 -29 -38 -40 -84 -20 -84 5 0 17 11 26 25 23 35 35
31 27 -7 -12 -66 -86 -111 -121 -76 -15 15 -16 63 -2 89 9 15 7 21 -7 26 -29
10 -53 46 -53 81 0 28 5 35 45 54 49 24 63 55 20 44 -36 -9 -73 3 -81 26 -8
27 5 38 63 54 68 18 122 18 130 -2z m-559 -106 c20 -20 14 -39 -22 -73 -22
-20 -31 -36 -26 -45 6 -9 17 -6 46 14 65 44 104 29 125 -49 13 -45 -3 -115
-32 -141 -11 -9 -19 -23 -19 -29 0 -29 78 -34 141 -9 37 15 42 15 56 1 15 -14
15 -18 0 -41 -18 -27 -70 -46 -129 -46 -44 0 -45 -2 -18 -38 11 -15 21 -38 22
-51 5 -43 -21 -34 -53 18 -44 71 -50 69 -84 -34 -13 -38 -26 -60 -35 -60 -18
0 -16 41 6 126 16 63 10 142 -12 160 -8 6 -14 19 -14 29 0 26 -12 32 -32 13
-23 -21 -23 -37 3 -73 23 -30 20 -60 -5 -60 -21 0 -71 45 -96 85 -15 25 -21
47 -18 77 2 34 0 41 -15 44 -27 4 -30 10 -23 38 4 17 21 33 47 47 39 19 41 23
36 55 -7 40 13 55 45 35 16 -10 24 -9 41 3 27 18 49 20 65 4z m2148 -92 c10
-27 -24 -73 -66 -90 -47 -19 -48 -36 -3 -48 34 -9 49 -41 27 -59 -10 -8 -22
-8 -45 0 -38 13 -109 15 -109 2 0 -14 -123 -59 -192 -71 -87 -14 -128 -13
-128 3 0 14 60 47 86 47 26 0 120 30 140 44 18 14 18 15 -6 34 -22 17 -23 23
-12 46 13 30 31 32 73 10 30 -15 31 -15 85 32 66 56 138 80 150 50z m-2778
-276 c45 -22 48 -29 30 -63 -14 -27 -28 -87 -20 -87 3 0 19 12 34 27 42 40 56
19 29 -43 -13 -28 -18 -51 -12 -57 11 -11 41 31 34 49 -3 8 1 21 8 30 26 32
98 -13 99 -62 0 -36 13 -36 45 2 25 29 35 35 53 30 12 -4 22 -11 22 -16 0 -5
-23 -41 -51 -80 -52 -70 -60 -103 -16 -62 48 45 70 18 37 -44 l-24 -42 27 -39
c15 -22 27 -44 27 -50 0 -22 -29 -21 -51 3 -25 27 -54 31 -62 10 -3 -8 -15
-20 -26 -25 -17 -9 -22 -8 -31 10 -9 16 -8 26 4 44 19 28 20 35 6 35 -5 0 -25
-24 -43 -52 -47 -73 -72 -94 -92 -78 -25 21 -18 44 35 109 28 34 50 68 50 76
0 7 -9 23 -19 36 -16 19 -22 22 -32 11 -11 -10 -11 -19 0 -47 14 -41 11 -48
-31 -69 -59 -30 -81 -14 -52 39 15 28 16 36 5 49 -8 9 -24 16 -38 16 -29 0
-39 21 -23 49 9 18 8 21 -9 21 -10 0 -22 -7 -25 -16 -3 -9 -15 -14 -28 -12
-20 3 -23 9 -24 48 -1 25 -5 57 -9 71 -7 28 13 53 36 44 8 -3 32 -28 53 -55
31 -39 42 -47 53 -39 15 13 17 50 4 65 -10 11 -41 134 -41 164 0 25 15 25 68
0z m2625 -57 c15 -28 50 -70 77 -93 28 -23 47 -46 44 -51 -3 -5 -25 -9 -48 -9
-38 0 -48 5 -81 41 -49 54 -79 124 -64 150 16 32 42 18 72 -38z m568 11 c11
-14 10 -19 -10 -35 -27 -22 -10 -26 35 -9 19 7 30 7 40 -1 19 -16 2 -36 -37
-44 -34 -8 -47 -24 -29 -35 9 -6 -1 -12 -28 -21 -42 -12 -70 -34 -59 -46 4 -3
21 1 39 10 18 8 42 17 53 19 11 2 26 16 33 31 15 32 44 49 75 45 29 -4 29 -40
0 -53 -31 -13 -29 -22 6 -23 42 -1 71 -19 71 -44 0 -28 -71 -97 -109 -104 -36
-8 -38 -14 -11 -39 25 -23 25 -37 0 -60 -15 -14 -23 -15 -34 -6 -8 6 -12 20
-9 30 3 12 -8 30 -32 52 -21 19 -52 50 -69 69 -17 19 -49 52 -71 73 -36 36
-43 39 -82 34 -78 -8 -99 39 -34 77 29 16 38 18 64 8 28 -11 34 -9 57 12 34
31 102 76 116 76 6 0 18 -7 25 -16z m-1386 -29 c489 -70 910 -342 1178 -762
124 -193 206 -414 242 -648 15 -99 15 -402 0 -485 -23 -133 -42 -207 -72 -295
-201 -580 -695 -1002 -1292 -1106 -146 -26 -384 -27 -544 -4 -612 91 -1132
531 -1328 1126 -155 474 -90 1003 176 1414 133 207 318 391 518 518 190 121
458 219 672 246 111 14 341 12 450 -4z m1256 -221 c7 -8 25 -22 41 -30 36 -19
38 -55 3 -78 -25 -17 -33 -50 -15 -61 20 -12 -2 -25 -38 -24 -20 1 -55 -6 -77
-14 -48 -19 -116 -22 -133 -5 -32 32 3 75 37 44 10 -9 28 -16 40 -16 25 0 71
27 71 42 0 6 -23 30 -50 55 -40 36 -48 48 -39 59 18 22 32 17 74 -26 21 -22
44 -40 51 -40 22 0 25 32 4 52 -20 19 -26 39 -13 51 11 12 30 8 44 -9z m-3244
-385 c84 -50 153 -94 153 -98 1 -10 -65 -131 -71 -131 -3 0 -13 6 -23 13 -18
13 -17 15 3 54 l21 42 -34 20 c-43 27 -54 26 -68 -4 -13 -29 -16 -29 -41 -11
-17 13 -17 17 -3 43 14 29 14 29 -30 56 -25 15 -47 27 -49 27 -2 0 -14 -18
-26 -39 -20 -36 -24 -38 -45 -29 -29 14 -29 17 -2 65 37 66 48 83 55 83 4 0
76 -41 160 -91z m3731 6 c11 -24 9 -26 -51 -56 -57 -29 -196 -154 -184 -165 2
-3 16 1 31 7 29 14 31 13 40 -18 6 -18 1 -25 -24 -38 -38 -20 -37 -49 2 -53
34 -4 238 91 238 111 0 29 -23 36 -63 20 -27 -11 -36 -20 -32 -31 6 -16 -10
-32 -32 -32 -15 0 -38 69 -27 80 15 14 132 70 147 70 21 0 28 -12 16 -26 -7
-9 -5 -14 9 -18 30 -10 47 -59 33 -94 -14 -33 -36 -47 -161 -101 -112 -49
-151 -52 -186 -14 -20 22 -25 36 -22 66 2 26 0 36 -8 33 -7 -3 -19 6 -28 19
-15 22 -13 25 40 75 30 29 54 54 52 56 -2 2 -33 -5 -69 -16 -79 -25 -74 -25
-87 5 -13 28 -10 29 138 60 42 9 101 31 135 50 73 41 79 42 93 10z m-3815
-171 c78 -54 144 -99 146 -101 3 -2 -3 -19 -12 -37 l-16 -35 -173 45 c-95 25
-177 49 -181 54 -12 11 10 50 28 50 7 0 25 -4 38 -9 21 -8 26 -6 36 17 13 27
8 35 -38 61 -19 12 -6 65 15 57 8 -3 78 -49 157 -102z m-165 -141 c-2 -22 -9
-29 -33 -33 -25 -4 -30 -10 -30 -35 0 -42 28 -43 114 -6 109 48 167 38 191
-33 12 -39 1 -79 -28 -97 -13 -8 -17 -20 -14 -36 2 -13 0 -43 -6 -66 -6 -23
-14 -55 -17 -70 -4 -22 -11 -28 -28 -25 -18 2 -22 9 -20 35 3 37 18 30 -189
79 -91 20 -118 31 -118 43 1 42 12 43 146 12 71 -17 139 -33 151 -37 29 -8 41
18 23 51 -16 29 -7 55 18 55 29 0 48 26 32 45 -19 23 -58 18 -125 -15 -80 -39
-127 -39 -166 -1 -38 39 -39 87 -3 130 21 25 33 31 66 31 37 0 39 -2 36 -27z
m4140 -49 c29 -33 30 -90 0 -121 -14 -15 -67 -38 -149 -64 -116 -38 -129 -40
-155 -28 -58 28 -70 122 -21 154 43 28 251 95 277 90 14 -3 35 -17 48 -31z
m52 -201 c6 -32 14 -66 16 -75 6 -20 21 -15 -203 -62 l-161 -33 -5 26 c-3 14
-1 29 4 32 6 3 75 19 155 35 l145 29 -6 46 c-7 48 -5 51 37 58 4 0 12 -25 18
-56z m5 -169 c20 -8 45 -56 45 -88 0 -14 -10 -37 -23 -51 -19 -23 -36 -28
-122 -40 -150 -22 -191 -20 -220 10 -41 40 -25 134 26 150 54 18 262 31 294
19z m-4120 -144 c47 -11 75 -41 75 -81 0 -64 -37 -99 -107 -99 -32 0 -35 2
-29 23 3 12 6 25 6 30 0 4 13 7 29 7 32 0 54 20 46 42 -7 17 -90 28 -208 28
-54 0 -69 -3 -74 -16 -8 -22 22 -44 59 -44 24 0 28 -4 28 -30 0 -28 -2 -30
-41 -30 -85 0 -132 98 -74 155 23 24 30 25 137 25 62 0 131 -5 153 -10z m4167
-94 c7 -34 -1 -39 -98 -72 -46 -16 -84 -32 -84 -36 0 -4 42 -9 92 -10 91 -3
92 -3 92 -28 l0 -25 -187 -3 -187 -3 0 29 c0 28 4 31 108 68 l107 39 -107 3
c-106 3 -108 3 -108 27 0 13 6 26 13 28 6 3 89 6 183 6 l172 1 4 -24z m-4102
-125 c0 -26 -3 -29 -46 -35 -26 -3 -60 -6 -75 -6 -26 0 -29 -4 -29 -30 l0 -31
78 3 c76 3 77 3 80 -23 3 -25 0 -27 -55 -32 -32 -4 -118 -9 -190 -13 l-133 -7
0 32 c0 30 1 31 48 31 26 0 64 3 85 7 31 5 38 9 35 27 -3 19 -10 21 -84 24
-75 3 -82 5 -88 25 -3 12 -2 25 2 29 6 5 121 14 345 26 23 2 27 -2 27 -27z
m3930 -81 c85 -11 158 -20 163 -20 4 0 7 -14 7 -31 l0 -31 -72 7 c-40 4 -77 8
-83 9 -5 0 -11 -11 -13 -26 -3 -29 -5 -28 111 -43 41 -5 47 -9 47 -30 0 -13
-4 -26 -9 -29 -11 -7 -353 34 -363 43 -4 3 -5 17 -1 30 6 22 8 23 78 16 69 -6
73 -5 78 16 3 12 4 26 2 29 -3 4 -36 10 -75 14 -69 7 -70 8 -70 37 0 36 -5 35
200 9z m-3912 -132 c2 -18 -2 -28 -15 -31 -37 -11 -343 -51 -347 -46 -3 3 -7
16 -8 29 -3 24 -1 25 167 51 94 15 177 26 185 26 8 -1 16 -14 18 -29z m8 -73
c4 -14 5 -27 3 -29 -2 -2 -47 -31 -99 -65 -52 -34 -88 -61 -80 -61 8 0 55 11
104 25 93 26 105 24 106 -16 0 -22 -350 -116 -362 -97 -18 29 -5 48 72 98 44
29 80 56 80 61 0 4 -39 -3 -87 -16 -47 -13 -90 -22 -95 -19 -4 3 -8 15 -8 28
0 21 13 26 173 69 94 25 175 46 179 46 4 1 10 -10 14 -24z m3803 10 c2 -2 1
-16 -3 -30 -5 -21 -12 -25 -46 -25 -36 0 -40 -3 -40 -24 0 -23 8 -26 108 -50
140 -34 162 -34 162 -1 0 19 -7 26 -27 31 -51 11 -52 11 -44 41 9 32 35 33 86
4 51 -29 58 -90 16 -142 -23 -29 -62 -29 -187 1 -113 26 -141 38 -159 64 -29
41 -11 109 35 134 22 11 86 9 99 -3z m-116 -211 c-1 -11 -5 -31 -9 -47 -6 -24
-3 -29 30 -42 49 -21 53 -19 61 15 7 32 15 36 45 20 16 -9 18 -15 9 -37 -11
-31 -8 -35 48 -56 46 -18 45 -19 62 36 13 38 24 44 51 27 12 -8 11 -19 -8 -79
-13 -39 -28 -71 -33 -71 -6 0 -74 23 -151 50 -77 28 -142 49 -143 48 -14 -17
-26 -53 -19 -56 5 -2 70 -31 144 -66 112 -52 134 -66 132 -82 -6 -31 -19 -39
-44 -26 -82 41 -243 112 -255 112 -8 0 -17 -9 -20 -20 -5 -21 -28 -26 -51 -12
-9 6 -3 30 27 100 21 50 49 120 61 156 19 59 23 64 43 57 13 -5 21 -16 20 -27z
m-3623 -50 c7 -19 10 -36 8 -38 -44 -33 -323 -185 -328 -179 -4 4 -10 17 -14
28 -5 16 2 25 29 39 38 21 42 32 23 59 -11 14 -19 15 -45 8 -33 -10 -44 -4
-56 31 -5 14 4 19 46 27 29 6 104 22 167 35 157 33 156 33 170 -10z m110 -273
c5 -11 10 -22 10 -24 0 -2 -58 -41 -130 -86 -95 -60 -130 -87 -130 -102 0 -40
31 -30 162 51 122 76 133 81 145 64 7 -10 13 -23 13 -28 0 -6 -60 -48 -132
-93 -152 -95 -180 -102 -222 -52 -36 42 -35 87 3 123 34 32 240 165 258 165 7
1 17 -8 23 -18z m3480 -96 c151 -96 163 -118 109 -212 -29 -51 -32 -53 -53
-40 -11 8 -79 51 -151 97 -71 45 -134 86 -139 90 -10 10 47 105 73 120 27 17
70 2 161 -55z m-3379 -76 c9 -19 4 -32 -44 -103 -69 -103 -75 -114 -56 -100 8
6 45 35 83 64 52 40 73 51 84 43 9 -5 17 -14 19 -20 3 -9 -235 -206 -283 -236
-7 -4 -19 3 -27 17 -15 22 -13 26 27 87 23 35 51 78 62 94 l19 30 -40 -29
c-22 -16 -60 -45 -84 -64 -42 -34 -44 -35 -57 -17 -8 10 -14 22 -14 25 0 4 48
45 108 90 59 46 122 96 140 112 39 34 48 35 63 7z m3279 -116 c77 -64 140
-119 140 -122 0 -4 -7 -14 -15 -24 -13 -18 -17 -17 -107 16 -51 19 -95 32 -98
30 -2 -2 10 -15 27 -29 18 -14 51 -42 75 -63 37 -34 40 -41 29 -55 -7 -9 -17
-16 -22 -16 -8 0 -234 184 -278 226 -13 12 -12 16 3 33 19 21 10 23 164 -38
30 -12 52 -17 50 -13 -2 7 -111 102 -147 129 -4 3 29 43 36 43 2 0 66 -53 143
-117z m-3126 -78 l37 -44 -59 -88 c-69 -103 -75 -113 -69 -113 3 0 44 32 92
70 48 39 91 70 95 70 4 0 14 -8 24 -19 16 -17 11 -23 -116 -118 -182 -137
-173 -132 -198 -107 l-21 20 96 148 c53 82 94 150 92 152 -2 2 -59 -48 -127
-112 l-123 -115 -21 21 -21 21 135 129 c74 71 138 129 141 130 4 0 23 -20 43
-45z m2850 -14 c3 -5 69 -53 146 -107 77 -53 140 -100 140 -104 0 -4 -9 -15
-19 -25 -19 -16 -21 -16 -50 4 -36 26 -47 26 -61 1 -9 -16 -7 -27 11 -51 22
-31 22 -31 2 -51 -20 -20 -20 -20 -125 124 -133 182 -124 165 -97 194 23 25
44 31 53 15z m-137 -150 c11 -17 8 -24 -22 -49 l-36 -29 22 -29 c13 -16 26
-33 30 -38 5 -5 19 -2 34 8 21 14 29 15 41 5 19 -16 18 -28 -8 -48 l-21 -18
21 -30 c39 -55 47 -58 85 -29 l34 26 19 -21 c19 -21 18 -21 -26 -60 -78 -68
-65 -75 -194 89 l-116 147 52 47 c59 53 68 56 85 29z m-2505 -39 c29 -27 69
-58 88 -69 61 -37 83 -67 78 -107 -4 -40 -2 -42 26 -21 54 41 136 -1 136 -69
0 -39 -11 -50 -39 -41 -13 4 -21 17 -23 37 -4 37 -19 45 -43 22 -18 -19 -18
-38 6 -144 14 -65 7 -103 -26 -136 -36 -35 -88 -33 -127 6 -27 27 -30 36 -25
71 7 50 8 52 38 41 18 -7 23 -17 23 -43 1 -29 4 -34 25 -34 40 0 47 25 28 107
-10 40 -17 86 -17 101 l0 29 -31 -26 c-17 -14 -36 -26 -42 -26 -7 0 -25 -36
-41 -80 -15 -44 -31 -82 -35 -84 -4 -3 -16 3 -28 12 l-21 17 29 75 c19 48 25
78 19 84 -5 5 -11 8 -13 5 -2 -2 -23 -32 -46 -66 -38 -57 -43 -62 -61 -50 -11
6 -20 16 -20 21 0 5 39 70 87 145 56 85 83 136 75 139 -7 2 -26 15 -42 29
l-30 25 -20 -24 c-38 -44 -41 -54 -20 -73 24 -22 25 -38 5 -55 -13 -11 -20 -9
-39 9 l-23 22 -37 -43 -37 -43 37 -33 38 -33 -21 -21 -21 -21 -51 48 c-29 27
-50 54 -47 61 8 20 219 284 227 284 4 0 31 -22 61 -48z m2383 -103 c41 -36 43
-49 13 -68 -20 -12 -24 -11 -43 13 -24 30 -50 34 -59 10 -9 -24 125 -228 153
-232 31 -5 36 22 12 62 l-21 34 24 15 c28 19 36 13 61 -45 34 -84 -52 -162
-123 -112 -12 8 -54 63 -93 121 -84 125 -91 160 -40 205 41 36 72 35 116 -3z
m-98 -224 c45 -88 82 -163 83 -167 0 -4 -10 -12 -21 -19 -19 -10 -28 -4 -83
48 -100 97 -103 96 -52 -4 45 -91 46 -93 25 -104 -12 -6 -25 -7 -29 -2 -5 4
-46 80 -91 167 -78 150 -81 160 -64 172 10 8 21 14 25 14 3 0 37 -31 75 -70
38 -38 73 -70 77 -70 5 0 -12 40 -36 89 -34 67 -42 91 -33 100 6 6 18 10 27 9
8 -2 52 -75 97 -163z m-1752 14 l90 -37 -2 -71 c-1 -39 3 -71 8 -71 5 0 22 27
39 60 30 59 42 68 69 51 12 -8 3 -29 -47 -111 -41 -69 -65 -121 -72 -159 -18
-91 -19 -93 -43 -85 -12 3 -24 8 -26 10 -3 3 3 37 12 77 22 94 23 240 1 261
-8 9 -22 16 -30 16 -16 0 -16 1 -80 -172 -25 -71 -52 -128 -58 -128 -6 0 -17
4 -25 9 -14 9 2 65 73 253 l25 66 -29 11 c-35 12 -26 26 -105 -156 -32 -73
-60 -133 -64 -133 -3 1 -16 6 -28 13 -22 12 -21 13 43 157 36 80 72 160 79
178 l14 33 33 -17 c18 -10 74 -34 123 -55z m1485 42 c0 -5 3 -16 6 -24 4 -11
-5 -19 -30 -27 -46 -15 -49 -21 -35 -71 12 -39 14 -40 47 -34 24 4 38 2 43 -7
15 -23 10 -36 -21 -47 l-30 -10 16 -43 c23 -59 25 -60 72 -44 42 15 42 15 48
-10 4 -14 3 -29 -2 -33 -13 -11 -124 -54 -128 -50 -2 2 -23 56 -46 119 -23 63
-52 143 -65 176 l-22 61 56 26 c59 27 91 33 91 18z m-124 -241 c29 -96 49
-178 46 -182 -4 -3 -16 -8 -26 -10 -17 -3 -25 12 -54 107 -72 232 -75 247 -60
256 31 21 42 1 94 -171z m-168 139 c30 -10 62 -58 62 -92 0 -16 -34 -32 -49
-23 -4 3 -11 19 -14 36 -5 22 -12 30 -27 30 -11 0 -23 -7 -26 -15 -9 -22 44
-247 61 -264 13 -14 17 -13 31 1 13 12 14 22 6 52 -10 34 -9 36 15 42 33 9 44
-5 46 -61 2 -40 -2 -50 -26 -71 -27 -23 -68 -31 -102 -18 -25 10 -44 56 -69
167 -13 56 -27 101 -32 101 -5 -1 -21 -4 -35 -8 -21 -5 -28 -2 -32 15 -8 29
-51 22 -55 -8 -2 -16 16 -41 72 -96 73 -71 76 -75 76 -121 0 -38 -5 -52 -26
-71 -40 -37 -94 -34 -128 6 -33 39 -34 65 -2 71 18 4 27 -1 35 -19 12 -26 42
-30 60 -9 10 11 9 21 -3 45 -9 16 -23 34 -32 39 -36 20 -102 94 -107 122 -9
42 11 88 44 105 42 22 67 18 101 -15 17 -17 32 -30 33 -28 1 2 7 17 12 33 6
19 22 36 44 47 19 10 34 18 35 18 1 0 15 -5 32 -11z m-671 -75 c24 -25 25 -29
19 -102 -18 -218 -18 -215 -47 -244 -32 -33 -73 -36 -107 -10 -30 23 -40 70
-31 141 4 31 8 82 8 114 1 58 20 111 43 120 37 15 90 6 115 -19z m203 -14 c0
-29 -2 -30 -45 -30 l-45 0 0 -49 c0 -49 1 -50 33 -53 27 -2 32 -7 32 -28 0
-21 -5 -26 -32 -28 l-33 -3 0 -85 0 -84 -30 0 -30 0 0 195 0 195 75 0 75 0 0
-30z"/>
<path d="M6019 5143 c-16 -4 -29 -92 -29 -198 0 -37 -3 -43 -35 -58 -20 -9
-43 -17 -52 -17 -8 0 -53 32 -100 71 l-84 71 -40 -26 c-21 -15 -39 -30 -39
-33 0 -4 16 -48 36 -98 33 -85 39 -93 82 -115 25 -14 72 -48 102 -77 l57 -52
34 23 c55 36 160 77 224 85 59 8 161 0 221 -17 126 -38 265 -156 321 -272 78
-161 67 -364 -28 -511 -39 -62 -139 -155 -195 -182 -41 -20 -44 -23 -44 -62 0
-23 -3 -75 -6 -116 l-6 -74 77 -97 c42 -54 81 -98 86 -98 9 0 68 27 78 36 2 2
-5 52 -15 112 -9 59 -15 115 -12 123 3 8 21 23 40 33 l35 19 103 -52 103 -53
34 35 35 34 -67 101 -67 100 24 41 23 41 121 -6 121 -7 13 48 c11 40 11 49 -1
56 -8 5 -52 33 -99 62 l-84 54 3 44 c1 24 8 47 14 51 6 4 58 23 114 44 96 34
103 38 102 63 -3 69 -8 74 -99 88 -158 24 -146 18 -160 69 l-13 47 82 80 82
81 -17 38 c-10 22 -21 41 -25 44 -4 2 -55 -9 -112 -26 -57 -16 -109 -30 -114
-30 -5 0 -23 17 -40 38 l-31 38 43 105 44 104 -32 28 c-17 15 -37 27 -45 27
-7 0 -51 -32 -96 -70 l-84 -70 -44 19 -45 19 -6 77 c-4 43 -7 97 -7 120 l0 43
-45 6 c-25 4 -49 5 -53 2 -5 -3 -28 -48 -52 -100 l-44 -96 -56 0 -55 1 -47 99
c-46 98 -47 100 -80 99 -18 -1 -40 -3 -49 -6z"/>
<path d="M5330 4710 c-64 -11 -154 -44 -208 -76 -69 -41 -154 -131 -188 -199
l-29 -60 -3 -495 -2 -495 130 -130 130 -129 0 592 c0 654 -3 626 63 676 99 76
305 75 406 -1 62 -47 61 -42 61 -593 0 -311 4 -508 10 -520 5 -10 30 -26 54
-35 62 -24 129 -13 168 25 l28 28 0 510 c0 483 -1 513 -20 575 -35 112 -126
215 -246 275 -87 44 -260 70 -354 52z"/>
<path d="M5292 3713 l3 -518 32 -68 c40 -84 124 -174 203 -216 123 -66 306
-89 435 -56 160 42 296 150 348 279 l28 69 6 356 c3 196 3 427 -2 514 l-7 157
-129 0 -129 0 0 -495 c0 -541 1 -528 -58 -572 -51 -38 -104 -55 -187 -60 -101
-6 -181 20 -237 79 l-38 39 -2 502 -3 502 -133 3 -133 3 3 -518z"/>
<path d="M7940 4622 c-83 -30 -105 -41 -105 -56 0 -39 27 -38 150 6 99 36 120
47 120 63 0 31 -47 28 -165 -13z"/>
<path d="M8001 4256 c-60 -8 -87 -16 -95 -28 -22 -36 4 -42 126 -29 143 16
148 17 148 47 0 22 -4 24 -47 23 -27 -1 -86 -7 -132 -13z"/>
<path d="M7672 3038 c-7 -7 -12 -15 -12 -18 0 -9 205 -140 218 -140 18 0 25
41 11 54 -31 27 -176 116 -190 116 -8 0 -20 -5 -27 -12z"/>
<path d="M5765 2098 c-3 -7 -9 -69 -14 -138 -7 -95 -7 -128 3 -138 10 -10 15
-10 30 1 14 11 20 37 29 134 5 66 7 128 4 137 -7 19 -46 22 -52 4z"/>
</g>
</svg>
